# This file uses centimeters as units for non-parametric coordinates.

mtllib CrayonBox2.mtl
g default
v -3.440095 0.000000 0.500000
v 3.440095 0.000000 0.500000
v -3.440095 8.240046 0.500000
v 3.440095 8.240046 0.500000
v -3.440095 8.240046 -0.500000
v 3.440095 8.240046 -0.500000
v -3.440095 0.000000 -0.500000
v 3.440095 0.000000 -0.500000
v 3.399703 8.240046 0.500000
v 3.399703 8.240046 -0.500000
v 3.399703 0.000000 -0.500000
v 3.399703 0.000000 0.500000
v 3.440095 8.240046 0.458512
v 3.399703 8.240046 0.458512
v -3.440095 8.240046 0.458512
v -3.440095 0.000000 0.458512
v 3.399703 0.000000 0.458512
v 3.440095 0.000000 0.458512
v 3.440095 8.240046 -0.463964
v 3.399703 8.240046 -0.463964
v -3.440095 8.240046 -0.463964
v -3.440095 0.000000 -0.463964
v 3.399703 0.000000 -0.463964
v 3.440095 0.000000 -0.463964
v -3.394678 8.240046 0.500000
v -3.394678 8.240046 0.458512
v -3.394678 8.240046 -0.463964
v -3.394678 8.240046 -0.500000
v -3.394678 0.000000 -0.500000
v -3.394678 0.000000 -0.463964
v -3.394678 0.000000 0.458512
v -3.394678 0.000000 0.500000
v -3.394678 0.079145 0.458512
v -3.394678 0.079145 -0.463964
v 3.399703 0.079145 0.458512
v 3.399703 0.079145 -0.463964
v -3.394678 10.262636 -0.463964
v -3.394678 10.262636 -0.500000
v 3.399703 10.262636 -0.463964
v 3.399703 10.262636 -0.500000
v 3.440095 9.157362 0.223440
v 3.399703 9.157362 0.223440
v 3.440095 9.157362 -0.445265
v 3.399703 9.157362 -0.445265
v -3.394678 9.157362 0.223440
v -3.440095 9.157362 0.223440
v -3.394678 9.157362 -0.445265
v -3.440095 9.157362 -0.445265
v 3.440095 8.802625 0.373596
v 3.399703 8.802625 0.373596
v 3.399703 8.249672 -0.447338
v 3.440095 8.249672 -0.447338
v -3.394678 8.802580 0.373593
v -3.440095 8.802580 0.373593
v -3.440095 8.249627 -0.449456
v -3.394678 8.249627 -0.449456
v -3.394678 9.142996 0.500000
v 3.399703 9.142996 0.500000
v 3.399703 9.142996 0.458512
v -3.394678 9.142996 0.458512
v 3.378313 9.360285 0.500000
v 3.314965 9.569116 0.500000
v 3.212092 9.761576 0.500000
v 3.073650 9.930268 0.500000
v 2.904958 10.068710 0.500000
v 2.712498 10.171582 0.500000
v 2.503666 10.234931 0.500000
v 2.286489 10.256321 0.500000
v 3.399703 9.143107 0.500000
v 2.286489 10.256321 0.458512
v 2.503666 10.234931 0.458512
v 2.712498 10.171582 0.458512
v 2.904958 10.068710 0.458512
v 3.073650 9.930268 0.458512
v 3.212092 9.761576 0.458512
v 3.314965 9.569116 0.458512
v 3.378313 9.360285 0.458512
v 3.399703 9.143107 0.458512
v -2.498642 10.234931 0.500000
v -2.707473 10.171582 0.500000
v -2.899933 10.068710 0.500000
v -3.068626 9.930268 0.500000
v -3.207068 9.761576 0.500000
v -3.309940 9.569116 0.500000
v -3.373288 9.360285 0.500000
v -3.394678 9.143107 0.500000
v -2.281465 10.256321 0.500000
v -3.373288 9.360285 0.458512
v -3.309940 9.569116 0.458512
v -3.207068 9.761576 0.458512
v -3.068626 9.930268 0.458512
v -2.899933 10.068710 0.458512
v -2.707473 10.171582 0.458512
v -2.498642 10.234931 0.458512
v -2.281465 10.256321 0.458512
v -3.394678 9.143107 0.458512
vt 0.064875 0.144067
vt 0.066719 0.144067
vt 0.066719 0.722972
vt 0.062582 0.722803
vt 0.470007 0.144067
vt 0.470007 0.722972
vt 0.468405 0.144067
vt 0.468405 0.709353
vt 0.106979 0.723384
vt 0.070493 0.747947
vt 0.106887 0.772283
vt 0.077166 0.772283
vt 0.513438 0.144504
vt 0.515142 0.144504
vt 0.515142 0.709003
vt 0.513438 0.720204
vt 0.102196 0.144504
vt 0.475529 0.719582
vt 0.509948 0.747541
vt 0.476125 0.720860
vt 0.103677 0.144504
vt 0.103677 0.709003
vt 0.503777 0.771846
vt 0.476297 0.771846
vt 0.559980 0.804928
vt 0.539176 0.804928
vt 0.539176 0.757456
vt 0.559980 0.757456
vt 0.559653 0.804984
vt 0.541091 0.808201
vt 0.559559 0.810264
vt 0.544478 0.810264
vt 0.582245 0.804928
vt 0.561441 0.804928
vt 0.561441 0.757456
vt 0.582245 0.757456
vt 0.580330 0.808201
vt 0.561816 0.804984
vt 0.576943 0.810264
vt 0.561862 0.810264
vt 0.264493 0.825483
vt 0.264486 0.824155
vt 0.339022 0.823756
vt 0.339029 0.825084
vt 0.264471 0.821365
vt 0.264464 0.820037
vt 0.339000 0.819637
vt 0.339007 0.820965
vt 0.272937 0.817201
vt 0.264441 0.815717
vt 0.297716 0.815539
vt 0.297724 0.817068
vt 0.297720 0.815539
vt 0.297728 0.817068
vt 0.305732 0.817025
vt 0.305723 0.815496
vt 0.313427 0.816984
vt 0.313419 0.815455
vt 0.320520 0.816946
vt 0.320512 0.815417
vt 0.326736 0.816912
vt 0.326728 0.815383
vt 0.331838 0.816885
vt 0.331830 0.815356
vt 0.335629 0.816864
vt 0.335621 0.815336
vt 0.337964 0.816852
vt 0.337955 0.815323
vt 0.338752 0.816848
vt 0.338744 0.815319
vt 0.264427 0.813128
vt 0.272907 0.811553
vt 0.297694 0.811420
vt 0.297702 0.812949
vt 0.297698 0.811420
vt 0.297706 0.812949
vt 0.305701 0.811377
vt 0.305710 0.812906
vt 0.313397 0.811336
vt 0.313405 0.812865
vt 0.320490 0.811298
vt 0.320498 0.812827
vt 0.326706 0.811265
vt 0.326714 0.812794
vt 0.331808 0.811237
vt 0.331816 0.812766
vt 0.335599 0.811217
vt 0.335607 0.812746
vt 0.337933 0.811205
vt 0.337942 0.812733
vt 0.338722 0.811200
vt 0.338730 0.812729
vt 0.286660 0.777622
vt 0.286843 0.784006
vt 0.286843 0.778772
vt 0.286660 0.778772
vt 0.107130 0.136612
vt 0.108847 0.136501
vt 0.108717 0.138107
vt 0.107129 0.138234
vt 0.306314 0.077550
vt 0.108836 0.099389
vt 0.468561 0.136578
vt 0.411889 0.089593
vt 0.306341 0.076698
vt 0.306971 0.076372
vt 0.468590 0.099526
vt 0.413203 0.087446
vt 0.413332 0.088894
vt 0.409936 0.076284
vt 0.411269 0.077100
vt 0.411266 0.076360
vt 0.284872 0.784006
vt 0.285035 0.777622
vt 0.285035 0.782661
vt 0.284872 0.778772
vt 0.296648 0.777622
vt 0.296810 0.777622
vt 0.296810 0.796156
vt 0.296648 0.796156
vt 0.294840 0.777622
vt 0.295023 0.777622
vt 0.295023 0.796156
vt 0.294840 0.796156
vt 0.290277 0.778083
vt 0.290439 0.781972
vt 0.290439 0.779081
vt 0.290277 0.779081
vt 0.290277 0.777622
vt 0.290439 0.777622
vt 0.288468 0.778024
vt 0.288651 0.778024
vt 0.288651 0.779023
vt 0.288468 0.779023
vt 0.288468 0.777622
vt 0.288651 0.777622
vt 0.293214 0.796023
vt 0.292064 0.796023
vt 0.292064 0.777622
vt 0.293214 0.777622
vt 0.333820 0.804992
vt 0.308252 0.804992
vt 0.308252 0.777622
vt 0.333820 0.777622
vt 0.306627 0.804992
vt 0.305628 0.804992
vt 0.305628 0.777622
vt 0.306627 0.777622
vt 0.476670 0.143354
vt 0.103503 0.143354
vt 0.103503 0.720813
vt 0.476670 0.698459
vt 0.469732 0.143354
vt 0.469732 0.720813
vt 0.471909 0.143354
vt 0.471909 0.698459
vt 0.469732 0.771863
vt 0.103503 0.771863
vt 0.151801 0.832848
vt 0.140544 0.828580
vt 0.130170 0.821650
vt 0.121078 0.812324
vt 0.113615 0.800960
vt 0.108070 0.787994
vt 0.104656 0.773926
vt 0.103503 0.759295
vt 0.469732 0.759295
vt 0.468579 0.773926
vt 0.465165 0.787994
vt 0.459620 0.800960
vt 0.452157 0.812324
vt 0.443064 0.821650
vt 0.432691 0.828580
vt 0.421434 0.832848
vt 0.409728 0.834289
vt 0.163507 0.834289
vt 0.879765 0.698930
vt 0.877361 0.698930
vt 0.877361 0.141407
vt 0.879765 0.141407
vt 0.517646 0.698930
vt 0.517646 0.141407
vt 0.877361 0.835779
vt 0.517646 0.835779
vt 0.515508 0.698930
vt 0.515508 0.141407
vt 0.224483 0.788140
vt 0.256364 0.788140
vt 0.256364 0.825703
vt 0.224483 0.825703
vt 0.224483 0.783984
vt 0.256364 0.783984
vt 0.224584 0.782984
vt 0.224881 0.782023
vt 0.225364 0.781137
vt 0.226013 0.780360
vt 0.226805 0.779723
vt 0.227708 0.779249
vt 0.228688 0.778958
vt 0.229707 0.778859
vt 0.251141 0.778859
vt 0.252160 0.778958
vt 0.253140 0.779249
vt 0.254043 0.779723
vt 0.254834 0.780360
vt 0.255484 0.781137
vt 0.255967 0.782023
vt 0.256264 0.782984
vt 0.256364 0.783983
vt 0.224483 0.783983
vt 0.536332 0.821505
vt 0.878115 0.952315
vt 0.862201 0.833699
vt 0.536332 0.833699
vt 0.520418 0.840014
vt 0.878115 0.840014
vt 0.303840 0.777622
vt 0.304003 0.781511
vt 0.304003 0.793214
vt 0.303840 0.793214
vt 0.304003 0.803046
vt 0.303840 0.803046
vt 0.302032 0.777622
vt 0.302215 0.777622
vt 0.302215 0.793213
vt 0.302032 0.793213
vt 0.302215 0.803046
vt 0.302032 0.803046
vt 0.298598 0.802780
vt 0.298436 0.802780
vt 0.298436 0.777622
vt 0.298598 0.777622
vt 0.300407 0.802781
vt 0.300224 0.802781
vt 0.300224 0.777622
vt 0.300407 0.777622
vt 0.469582 0.139430
vt 0.307238 0.077140
vt 0.409892 0.077084
vt 0.107111 0.099766
vt 0.412071 0.087446
vt 0.520418 0.952315
vt 0.862201 0.821505
vt 0.102196 0.719582
vt 0.107718 0.722972
vt 0.474222 0.143354
vt 0.474222 0.720813
vt 0.107718 0.144067
vt 0.475529 0.144504
vn 0.000000 0.000000 1.000000
vn 0.000000 0.000000 1.000000
vn 0.000000 0.000000 1.000000
vn 0.000000 0.000000 1.000000
vn 0.000000 1.000000 0.000000
vn 0.000000 1.000000 0.000000
vn 0.000000 1.000000 0.000000
vn 0.000000 1.000000 0.000000
vn 0.000000 0.000000 -1.000000
vn 0.000000 0.000000 -1.000000
vn 0.000000 0.000000 -1.000000
vn 0.000000 0.000000 -1.000000
vn 0.000000 -1.000000 0.000000
vn 0.000000 -1.000000 0.000000
vn 0.000000 -1.000000 0.000000
vn 0.000000 -1.000000 0.000000
vn 1.000000 0.000000 0.000000
vn 1.000000 0.000000 0.000000
vn 1.000000 0.000000 0.000000
vn 1.000000 0.000000 0.000000
vn -1.000000 0.000000 0.000000
vn -1.000000 0.000000 0.000000
vn -1.000000 0.000000 0.000000
vn -1.000000 0.000000 0.000000
vn 0.000000 1.000000 0.000000
vn 0.000000 1.000000 0.000000
vn 0.000000 1.000000 0.000000
vn 0.000000 1.000000 0.000000
vn 0.000000 0.000000 -1.000000
vn 0.000000 0.000000 -1.000000
vn 0.000000 0.000000 -1.000000
vn 0.000000 0.000000 -1.000000
vn 0.000000 -1.000000 0.000000
vn 0.000000 -1.000000 0.000000
vn 0.000000 -1.000000 0.000000
vn 0.000000 -1.000000 0.000000
vn 0.000000 0.000000 1.000000
vn 0.000000 0.000000 1.000000
vn 0.000000 0.000000 1.000000
vn 0.000000 0.000000 1.000000
vn 0.000000 1.000000 0.000000
vn 0.000000 1.000000 0.000000
vn 0.000000 1.000000 0.000000
vn 0.000000 1.000000 0.000000
vn 0.000000 1.000000 0.000000
vn 0.000000 1.000000 0.000000
vn 0.000000 1.000000 0.000000
vn 0.000000 1.000000 0.000000
vn -1.000000 0.000000 0.000000
vn -1.000000 0.000000 0.000000
vn 0.000000 -1.000000 0.000000
vn 0.000000 -1.000000 0.000000
vn 0.000000 -1.000000 0.000000
vn 0.000000 -1.000000 0.000000
vn 1.000000 0.000000 0.000000
vn 1.000000 0.000000 0.000000
vn 0.000000 1.000000 0.000000
vn 0.000000 1.000000 0.000000
vn 0.000000 1.000000 0.000000
vn 0.000000 1.000000 0.000000
vn 0.000000 1.000000 0.000000
vn 0.000000 1.000000 0.000000
vn 0.000000 1.000000 0.000000
vn 0.000000 1.000000 0.000000
vn -1.000000 0.000000 0.000000
vn -1.000000 0.000000 0.000000
vn 0.000000 -1.000000 0.000000
vn 0.000000 -1.000000 0.000000
vn 0.000000 -1.000000 0.000000
vn 0.000000 -1.000000 0.000000
vn 1.000000 0.000000 0.000000
vn 1.000000 0.000000 0.000000
vn -0.004470 0.999990 0.000000
vn -0.004470 0.999990 0.000000
vn 0.004470 0.999990 0.000000
vn 0.004470 0.999990 0.000000
vn 0.000000 1.000000 0.000000
vn 0.000000 1.000000 0.000000
vn 0.000000 1.000000 0.000000
vn 0.000000 1.000000 0.000000
vn 0.000000 1.000000 0.000000
vn 0.000000 1.000000 0.000000
vn 0.000000 1.000000 0.000000
vn 0.000000 1.000000 0.000000
vn 1.000000 0.000000 0.000000
vn 1.000000 0.000000 0.000000
vn 1.000000 0.000000 0.000000
vn 1.000000 0.000000 0.000000
vn 0.000000 0.000000 -1.000000
vn 0.000000 0.000000 -1.000000
vn 0.000000 0.000000 -1.000000
vn 0.000000 0.000000 -1.000000
vn -1.000000 0.000000 0.000000
vn -1.000000 0.000000 0.000000
vn -1.000000 0.000000 0.000000
vn -1.000000 0.000000 0.000000
vn 0.000000 0.000000 1.000000
vn 0.000000 0.000000 1.000000
vn 0.000000 0.000000 1.000000
vn 0.000000 0.000000 1.000000
vn -1.000000 0.000000 0.000000
vn -1.000000 0.000000 0.000000
vn -1.000000 0.000000 0.000000
vn -1.000000 0.000000 0.000000
vn 0.000000 0.000000 1.000000
vn 0.000000 0.000000 1.000000
vn 0.000000 0.000000 1.000000
vn 0.000000 0.000000 1.000000
vn 1.000000 0.000000 0.000000
vn 1.000000 0.000000 0.000000
vn 1.000000 0.000000 0.000000
vn 1.000000 0.000000 0.000000
vn 0.000000 0.000000 -1.000000
vn 0.000000 0.000000 -1.000000
vn 0.000000 0.000000 -1.000000
vn 0.000000 0.000000 -1.000000
vn 0.000000 0.149249 0.988800
vn 0.000000 0.149249 0.988800
vn 0.000000 0.248240 0.968699
vn 0.000000 0.248240 0.968699
vn 1.000000 0.000000 0.000000
vn 1.000000 0.000000 0.000000
vn 1.000000 0.000000 0.000000
vn 1.000000 0.000000 0.000000
vn 0.000000 0.865420 -0.501047
vn 0.000000 0.865420 -0.501047
vn 0.000000 0.020380 -0.999792
vn 0.000000 0.020380 -0.999792
vn -1.000000 0.000012 0.000000
vn -1.000000 -0.000001 0.000000
vn -1.000000 0.000000 0.000000
vn -1.000000 -0.000000 0.000000
vn 0.000000 0.149266 0.988797
vn 0.000000 0.149266 0.988797
vn 0.000000 0.248238 0.968699
vn 0.000000 0.248238 0.968699
vn 1.000000 0.000046 0.000000
vn 1.000000 0.000001 0.000000
vn 1.000000 0.000001 0.000000
vn 1.000000 -0.000000 0.000000
vn 0.000000 0.834445 -0.551092
vn 0.000000 0.834445 -0.551092
vn 0.000000 0.020380 -0.999792
vn 0.000000 0.020380 -0.999792
vn -1.000000 -0.000023 0.000000
vn -1.000000 -0.000000 0.000000
vn -1.000000 -0.000000 0.000000
vn -1.000000 0.000000 0.000000
vn 0.000000 0.389803 0.920898
vn 0.000000 0.389803 0.920898
vn -1.000000 0.000000 0.000000
vn -1.000000 0.000000 0.000000
vn 0.000000 0.002283 -0.999997
vn 0.000000 0.002283 -0.999997
vn 1.000000 0.000000 0.000000
vn 1.000000 0.000000 0.000000
vn 0.000000 0.389756 0.920918
vn 0.000000 0.389756 0.920918
vn -1.000000 0.000000 0.000000
vn -1.000000 0.000000 0.000000
vn 0.000000 0.004617 -0.999989
vn 0.000000 0.004617 -0.999989
vn 1.000000 -0.000001 0.000000
vn 1.000000 -0.000001 0.000000
vn 0.000000 0.000000 1.000000
vn 0.000000 0.000000 1.000000
vn 0.000000 0.000000 1.000000
vn 0.000000 0.000000 1.000000
vn 1.000000 0.000000 0.000000
vn 1.000000 0.000000 0.000000
vn 1.000000 0.000000 0.000000
vn 1.000000 0.000000 0.000000
vn 0.000000 0.000000 -1.000000
vn 0.000000 0.000000 -1.000000
vn 0.000000 0.000000 -1.000000
vn -0.000000 0.000000 -1.000000
vn -1.000000 0.000000 0.000000
vn -1.000000 0.000000 0.000000
vn -1.000000 0.000000 0.000000
vn -1.000000 0.000000 0.000000
vn 1.000000 0.000000 0.000000
vn 1.000000 0.000000 0.000000
vn 0.995190 0.097967 0.000000
vn 0.995190 0.097967 0.000000
vn -1.000000 0.000000 0.000000
vn -1.000000 0.000000 0.000000
vn -0.995190 0.097967 0.000000
vn -0.995190 0.097967 0.000000
vn 0.195091 0.980785 0.000000
vn 0.195091 0.980785 0.000000
vn 0.382684 0.923880 0.000000
vn 0.382684 0.923879 0.000000
vn 0.555569 0.831470 0.000000
vn 0.555570 0.831470 0.000000
vn 0.707107 0.707107 0.000000
vn 0.707107 0.707107 0.000000
vn 0.831469 0.555571 0.000000
vn 0.831469 0.555570 0.000000
vn 0.923879 0.382684 0.000000
vn 0.923880 0.382683 0.000000
vn 0.980785 0.195090 0.000000
vn 0.980785 0.195089 0.000000
vn -0.980785 0.195090 0.000000
vn -0.980785 0.195090 0.000000
vn -0.923879 0.382684 0.000000
vn -0.923880 0.382683 0.000000
vn -0.831470 0.555570 0.000000
vn -0.831470 0.555570 0.000000
vn -0.707107 0.707107 0.000000
vn -0.707107 0.707107 0.000000
vn -0.555569 0.831470 0.000000
vn -0.555569 0.831470 0.000000
vn -0.382684 0.923879 0.000000
vn -0.382684 0.923879 0.000000
vn -0.195091 0.980785 0.000000
vn -0.195091 0.980785 0.000000
vn 0.000000 0.000000 1.000000
vn 0.000000 0.000000 1.000000
vn 0.000000 0.000000 1.000000
vn 0.000000 0.000000 1.000000
vn 0.000000 0.000000 1.000000
vn 0.000000 0.000000 1.000000
vn 0.000000 0.000000 1.000000
vn 0.000000 0.000000 1.000000
vn 0.000000 0.000000 1.000000
vn 0.000000 0.000000 1.000000
vn 0.000000 0.000000 1.000000
vn 0.000000 0.000000 1.000000
vn 0.000000 0.000000 1.000000
vn 0.000000 0.000000 1.000000
vn 0.000000 0.000000 1.000000
vn 0.000000 0.000000 1.000000
vn 0.000000 0.000000 1.000000
vn 0.000000 0.000000 1.000000
vn 0.000000 0.000000 -1.000000
vn 0.000000 0.000000 -1.000000
vn -0.000000 0.000000 -1.000000
vn 0.000000 0.000000 -1.000000
vn 0.000000 0.000000 -1.000000
vn 0.000000 0.000000 -1.000000
vn 0.000000 0.000000 -1.000000
vn 0.000000 0.000000 -1.000000
vn 0.000000 0.000000 -1.000000
vn 0.000000 0.000000 -1.000000
vn 0.000000 0.000000 -1.000000
vn 0.000000 0.000000 -1.000000
vn 0.000000 0.000000 -1.000000
vn 0.000000 0.000000 -1.000000
vn 0.000000 0.000000 -1.000000
vn 0.000000 0.000000 -1.000000
vn 0.000000 0.000000 -1.000000
vn 0.000000 0.000000 -1.000000
s 1
g pCube1
usemtl lambert3SG
f 1/149/1 32/246/2 3/152/3
f 3/152/3 32/246/2 25/247/4
s 2
f 3/93/5 25/94/6 15/96/7
f 15/96/7 25/94/6 26/95/8
s 3
f 5/177/9 28/178/10 7/180/11
f 7/180/11 28/178/10 29/179/12
s 4
f 16/97/13 31/98/14 1/100/15
f 1/100/15 31/98/14 32/99/16
s 5
f 2/1/17 18/2/18 4/4/19
f 4/4/19 18/2/18 13/3/20
s 6
f 16/13/21 1/14/22 15/16/23
f 15/16/23 1/14/22 3/15/24
s 7
f 9/113/25 4/114/26 14/116/27
f 14/116/27 4/114/26 13/115/28
s 3
f 11/182/29 10/181/30 8/186/31
f 8/186/31 10/181/30 6/185/32
s 4
f 12/104/33 17/241/34 2/109/35
f 2/109/35 17/241/34 18/108/36
s 1
f 9/154/37 12/153/38 4/156/39
f 4/156/39 12/153/38 2/155/40
s 11
f 42/117/41 41/118/42 44/120/43
f 44/120/43 41/118/42 43/119/44
s 12
f 46/121/45 45/122/46 48/124/47
f 48/124/47 45/122/46 47/123/48
s 6
f 22/249/49 16/13/21 21/18/50
f 21/18/50 16/13/21 15/16/23
s 4
f 22/240/51 30/102/52 16/97/13
f 16/97/13 30/102/52 31/98/14
f 18/108/36 17/241/34 24/111/53
f 24/111/53 17/241/34 23/239/54
s 5
f 13/3/20 18/2/18 19/245/55
f 19/245/55 18/2/18 24/248/56
s 14
f 20/125/57 19/126/58 10/128/59
f 10/128/59 19/126/58 6/127/60
s 15
f 21/131/61 27/132/62 5/134/63
f 5/134/63 27/132/62 28/133/64
s 6
f 7/21/65 22/17/49 5/22/66
f 5/22/66 22/17/49 21/244/50
s 4
f 7/105/67 29/106/68 22/101/51
f 22/101/51 29/106/68 30/238/52
f 24/111/53 23/239/54 8/112/69
f 8/112/69 23/239/54 11/110/70
s 5
f 19/6/55 24/5/56 6/8/71
f 6/8/71 24/5/56 8/7/72
s 16
f 95/137/73 87/138/74 70/140/75
f 70/140/75 87/138/74 68/139/76
s 17
f 34/141/77 33/142/78 36/144/79
f 36/144/79 33/142/78 35/143/80
s 18
f 38/145/81 37/146/82 40/148/83
f 40/148/83 37/146/82 39/147/84
s 3
f 29/179/12 28/178/10 11/182/29
f 11/182/29 28/178/10 10/181/30
s 4
f 30/238/52 29/106/68 23/239/54
f 23/239/54 29/106/68 11/110/70
f 31/98/14 30/102/52 17/103/34
f 17/103/34 30/102/52 23/107/54
f 32/99/16 31/98/14 12/237/33
f 12/237/33 31/98/14 17/103/34
s 1
f 25/151/4 32/150/2 9/154/37
f 9/154/37 32/150/2 12/153/38
s 19
f 27/25/85 26/26/86 34/28/87
f 34/28/87 26/26/86 33/27/88
s 20
f 26/187/89 14/188/90 33/190/91
f 33/190/91 14/188/90 35/189/92
s 21
f 14/33/93 20/34/94 35/36/95
f 35/36/95 20/34/94 36/35/96
s 22
f 20/211/97 27/243/98 36/214/99
f 36/214/99 27/243/98 34/213/100
s 23
f 28/41/101 27/42/102 38/44/103
f 38/44/103 27/42/102 37/43/104
s 24
f 27/212/105 20/242/106 37/216/107
f 37/216/107 20/242/106 39/215/108
s 25
f 20/45/109 10/46/110 39/48/111
f 39/48/111 10/46/110 40/47/112
s 26
f 10/181/113 28/178/114 40/184/115
f 40/184/115 28/178/114 38/183/116
s 27
f 14/217/117 13/218/118 50/220/119
f 50/220/119 13/218/118 49/219/120
s 28
f 19/245/121 52/9/122 13/3/123
f 13/3/123 52/9/122 49/10/124
s 29
f 19/126/125 20/125/126 52/130/127
f 52/130/127 20/125/126 51/129/128
s 30
f 20/34/129 14/33/130 51/38/131
f 14/33/130 50/37/132 51/38/131
s 31
f 15/223/133 26/224/134 54/226/135
f 54/226/135 26/224/134 53/225/136
s 32
f 27/25/137 56/29/138 26/26/139
f 26/26/139 56/29/138 53/30/140
s 33
f 27/132/141 21/131/142 56/136/143
f 56/136/143 21/131/142 55/135/144
s 34
f 21/18/145 15/16/146 55/20/147
f 15/16/146 54/19/148 55/20/147
s 27
f 50/220/119 49/219/120 42/222/149
f 42/222/149 49/219/120 41/221/150
s 30
f 51/38/131 50/37/132 44/40/151
f 44/40/151 50/37/132 42/39/152
s 29
f 52/229/127 51/230/128 43/232/153
f 43/232/153 51/230/128 44/231/154
s 28
f 52/9/122 43/11/155 49/10/124
f 49/10/124 43/11/155 41/12/156
s 31
f 54/226/135 53/225/136 46/228/157
f 46/228/157 53/225/136 45/227/158
s 34
f 55/20/147 54/19/148 48/24/159
f 48/24/159 54/19/148 46/23/160
s 33
f 56/233/143 55/234/144 47/236/161
f 47/236/161 55/234/144 48/235/162
s 32
f 56/29/138 47/31/163 53/30/140
f 53/30/140 47/31/163 45/32/164
s 35
f 25/151/165 9/154/166 57/158/167
f 57/158/167 9/154/166 58/157/168
s 36
f 9/49/169 14/50/170 58/52/171
f 58/52/171 14/50/170 59/51/172
s 37
f 14/188/173 26/187/174 59/192/175
f 59/192/175 26/187/174 60/191/176
s 38
f 26/71/177 25/72/178 60/74/179
f 60/74/179 25/72/178 57/73/180
s 16
f 58/52/181 59/51/182 69/54/183
f 69/54/183 59/51/182 78/53/184
f 60/74/185 57/73/186 96/76/187
f 96/76/187 57/73/186 86/75/188
f 68/69/76 67/67/189 70/70/75
f 70/70/75 67/67/189 71/68/190
f 67/67/189 66/65/191 71/68/190
f 71/68/190 66/65/191 72/66/192
f 66/65/191 65/63/193 72/66/192
f 72/66/192 65/63/193 73/64/194
f 65/63/193 64/61/195 73/64/194
f 73/64/194 64/61/195 74/62/196
f 64/61/195 63/59/197 74/62/196
f 74/62/196 63/59/197 75/60/198
f 63/59/197 62/57/199 75/60/198
f 75/60/198 62/57/199 76/58/200
f 62/57/199 61/55/201 76/58/200
f 76/58/200 61/55/201 77/56/202
f 61/55/201 69/54/183 77/56/202
f 77/56/202 69/54/183 78/53/184
f 86/75/188 85/77/203 96/76/187
f 96/76/187 85/77/203 88/78/204
f 85/77/203 84/79/205 88/78/204
f 88/78/204 84/79/205 89/80/206
f 84/79/205 83/81/207 89/80/206
f 89/80/206 83/81/207 90/82/208
f 83/81/207 82/83/209 90/82/208
f 90/82/208 82/83/209 91/84/210
f 82/83/209 81/85/211 91/84/210
f 91/84/210 81/85/211 92/86/212
f 81/85/211 80/87/213 92/86/212
f 92/86/212 80/87/213 93/88/214
f 80/87/213 79/89/215 93/88/214
f 93/88/214 79/89/215 94/90/216
f 79/89/215 87/91/74 94/90/216
f 94/90/216 87/91/74 95/92/73
s 35
f 57/158/167 58/157/168 86/166/217
f 86/166/217 58/157/168 85/165/218
f 58/157/168 69/167/219 85/165/218
f 69/167/219 61/168/220 85/165/218
f 85/165/218 61/168/220 84/164/221
f 61/168/220 62/169/222 84/164/221
f 84/164/221 62/169/222 83/163/223
f 62/169/222 63/170/224 83/163/223
f 83/163/223 63/170/224 82/162/225
f 63/170/224 64/171/226 82/162/225
f 82/162/225 64/171/226 81/161/227
f 64/171/226 65/172/228 81/161/227
f 81/161/227 65/172/228 80/160/229
f 65/172/228 66/173/230 80/160/229
f 80/160/229 66/173/230 79/159/231
f 79/159/231 66/173/230 87/176/232
f 87/176/232 66/173/230 68/175/233
f 66/173/230 67/174/234 68/175/233
s 37
f 59/192/175 60/191/176 78/209/235
f 78/209/235 60/191/176 77/208/236
f 60/191/176 96/210/237 77/208/236
f 96/210/237 88/193/238 77/208/236
f 88/193/238 89/194/239 77/208/236
f 77/208/236 89/194/239 76/207/240
f 89/194/239 90/195/241 76/207/240
f 76/207/240 90/195/241 75/206/242
f 90/195/241 91/196/243 75/206/242
f 75/206/242 91/196/243 74/205/244
f 91/196/243 92/197/245 74/205/244
f 74/205/244 92/197/245 73/204/246
f 92/197/245 93/198/247 73/204/246
f 73/204/246 93/198/247 72/203/248
f 93/198/247 94/199/249 72/203/248
f 94/199/249 95/200/250 72/203/248
f 95/200/250 70/201/251 72/203/248
f 70/201/251 71/202/252 72/203/248
