# This file uses centimeters as units for non-parametric coordinates.

mtllib tire.mtl
g default
v 0.180000 0.591284 -0.244820
v 0.180000 0.452548 -0.452372
v -0.180000 0.452548 -0.452372
v -0.180000 0.591284 -0.244820
v 0.180000 0.244916 -0.591052
v -0.180000 0.244916 -0.591052
v 0.180000 0.000000 -0.639752
v -0.180000 0.000000 -0.639752
v 0.180000 -0.244916 -0.591052
v -0.180000 -0.244916 -0.591052
v 0.180000 -0.452548 -0.452372
v -0.180000 -0.452548 -0.452372
v 0.180000 -0.591284 -0.244824
v -0.180000 -0.591284 -0.244824
v 0.180000 -0.640000 0.000000
v -0.180000 -0.640000 0.000000
v 0.180000 -0.591284 0.244824
v -0.180000 -0.591284 0.244824
v 0.180000 -0.452548 0.452372
v -0.180000 -0.452548 0.452372
v 0.180000 -0.244916 0.591052
v -0.180000 -0.244916 0.591052
v 0.180000 0.000000 0.639752
v -0.180000 0.000000 0.639752
v 0.180000 0.244916 0.591052
v -0.180000 0.244916 0.591052
v 0.180000 0.452548 0.452372
v -0.180000 0.452548 0.452372
v 0.180000 0.591284 0.244824
v -0.180000 0.591284 0.244824
v 0.180000 0.640000 0.000000
v -0.180000 0.640000 0.000000
v 0.195340 0.259736 -0.259636
v 0.195340 0.339364 -0.140516
v 0.237056 0.000000 0.000000
v 0.195340 0.140568 -0.339232
v 0.195340 0.000000 -0.367180
v 0.195340 -0.140568 -0.339232
v 0.195340 -0.259736 -0.259636
v 0.195340 -0.339364 -0.140516
v 0.195340 -0.367324 0.000000
v 0.195340 -0.339364 0.140516
v 0.195340 -0.259736 0.259636
v 0.195340 -0.140568 0.339232
v 0.195340 0.000000 0.367180
v 0.195340 0.140568 0.339232
v 0.195340 0.259736 0.259636
v 0.195340 0.339364 0.140516
v 0.195340 0.367324 0.000000
v 0.243880 0.466400 -0.193112
v 0.243880 0.356968 -0.356828
v 0.243880 0.193188 -0.466216
v 0.243880 0.000000 -0.504632
v 0.243880 -0.193188 -0.466216
v 0.243880 -0.356964 -0.356828
v 0.243880 -0.466400 -0.193112
v 0.243880 -0.504828 0.000000
v 0.243880 -0.466400 0.193112
v 0.243880 -0.356968 0.356828
v 0.243880 -0.193188 0.466216
v 0.243880 0.000000 0.504632
v 0.243880 0.193188 0.466216
v 0.243880 0.356968 0.356828
v 0.243880 0.466400 0.193112
v 0.243880 0.504828 0.000000
vt 0.021758 0.037747
vt 0.081853 0.037747
vt 0.081853 0.132001
vt 0.021758 0.132001
vt 0.141948 0.037747
vt 0.141948 0.132001
vt 0.202043 0.037747
vt 0.202043 0.132001
vt 0.262138 0.037747
vt 0.262138 0.132001
vt 0.322233 0.037747
vt 0.322233 0.132001
vt 0.382328 0.037747
vt 0.382328 0.132001
vt 0.442423 0.037747
vt 0.442423 0.132001
vt 0.502518 0.037747
vt 0.502518 0.132001
vt 0.562613 0.037747
vt 0.562613 0.132001
vt 0.622708 0.037747
vt 0.622708 0.132001
vt 0.682803 0.037747
vt 0.682803 0.132001
vt 0.742898 0.037747
vt 0.742898 0.132001
vt 0.802993 0.037747
vt 0.802993 0.132001
vt 0.863088 0.037747
vt 0.863088 0.132001
vt 0.923184 0.037747
vt 0.923184 0.132001
vt 0.983278 0.037747
vt 0.983278 0.132001
vt 0.586678 0.715549
vt 0.519246 0.760623
vt 0.439704 0.568518
vt 0.631735 0.648090
vt 0.647557 0.568518
vt 0.631735 0.488945
vt 0.586678 0.421487
vt 0.519246 0.376413
vt 0.439704 0.360585
vt 0.360163 0.376413
vt 0.292731 0.421487
vt 0.247674 0.488945
vt 0.231852 0.568518
vt 0.247674 0.648090
vt 0.292730 0.715549
vt 0.360163 0.760623
vt 0.439704 0.776451
vt 0.734168 0.865854
vt 0.598868 0.956294
vt 0.565160 0.874883
vt 0.671883 0.803545
vt 0.824572 0.730502
vt 0.743193 0.696781
vt 0.856318 0.570843
vt 0.768234 0.570843
vt 0.824572 0.411185
vt 0.743193 0.444906
vt 0.734168 0.275832
vt 0.671883 0.338141
vt 0.598869 0.185393
vt 0.565160 0.266803
vt 0.439272 0.153635
vt 0.439272 0.241753
vt 0.279675 0.185393
vt 0.313383 0.266803
vt 0.144375 0.275832
vt 0.206660 0.338141
vt 0.053971 0.411184
vt 0.135350 0.444906
vt 0.022225 0.570843
vt 0.110309 0.570843
vt 0.053971 0.730502
vt 0.135350 0.696780
vt 0.144375 0.865854
vt 0.206660 0.803545
vt 0.279675 0.956294
vt 0.313383 0.874883
vt 0.439272 0.988052
vt 0.439272 0.899934
vt 0.530871 0.792070
vt 0.608525 0.740163
vt 0.660413 0.662478
vt 0.678633 0.570843
vt 0.660413 0.479208
vt 0.608526 0.401524
vt 0.530871 0.349616
vt 0.439272 0.331389
vt 0.347672 0.349616
vt 0.270018 0.401523
vt 0.218131 0.479208
vt 0.199910 0.570843
vt 0.218130 0.662478
vt 0.270018 0.740163
vt 0.347672 0.792070
vt 0.439272 0.810297
vn 0.000000 0.923831 -0.382801
vn 0.000000 0.706980 -0.707233
vn 0.000000 0.923831 -0.382801
vn 0.000000 0.706980 -0.707233
vn 0.000000 0.706980 -0.707233
vn 0.000000 0.382567 -0.923928
vn 0.000000 0.706980 -0.707233
vn 0.000000 0.382567 -0.923928
vn 0.000000 0.382567 -0.923928
vn 0.000000 0.000000 -1.000000
vn 0.000000 0.382567 -0.923928
vn 0.000000 0.000000 -1.000000
vn 0.000000 0.000000 -1.000000
vn 0.000000 -0.382566 -0.923928
vn 0.000000 0.000000 -1.000000
vn 0.000000 -0.382566 -0.923928
vn 0.000000 -0.382566 -0.923928
vn 0.000000 -0.706980 -0.707234
vn 0.000000 -0.382566 -0.923928
vn 0.000000 -0.706980 -0.707234
vn 0.000000 -0.706980 -0.707234
vn 0.000000 -0.923831 -0.382801
vn 0.000000 -0.706980 -0.707234
vn 0.000000 -0.923831 -0.382801
vn 0.000000 -0.923831 -0.382801
vn 0.000000 -1.000000 0.000000
vn 0.000000 -0.923831 -0.382801
vn 0.000000 -1.000000 0.000000
vn 0.000000 -1.000000 0.000000
vn 0.000000 -0.923831 0.382800
vn 0.000000 -1.000000 0.000000
vn 0.000000 -0.923831 0.382800
vn 0.000000 -0.923831 0.382800
vn 0.000000 -0.706980 0.707233
vn 0.000000 -0.923831 0.382800
vn 0.000000 -0.706980 0.707233
vn 0.000000 -0.706980 0.707233
vn 0.000000 -0.382566 0.923928
vn 0.000000 -0.706980 0.707233
vn 0.000000 -0.382566 0.923928
vn 0.000000 -0.382566 0.923928
vn 0.000000 0.000000 1.000000
vn 0.000000 -0.382566 0.923928
vn 0.000000 0.000000 1.000000
vn 0.000000 0.000000 1.000000
vn 0.000000 0.382566 0.923928
vn 0.000000 0.000000 1.000000
vn 0.000000 0.382566 0.923928
vn 0.000000 0.382566 0.923928
vn 0.000000 0.706980 0.707234
vn 0.000000 0.382566 0.923928
vn 0.000000 0.706980 0.707234
vn 0.000000 0.706980 0.707234
vn 0.000000 0.923831 0.382801
vn 0.000000 0.706980 0.707234
vn 0.000000 0.923831 0.382801
vn 0.000000 0.923831 0.382801
vn 0.000000 1.000000 0.000000
vn 0.000000 0.923831 0.382801
vn 0.000000 1.000000 0.000000
vn 0.000000 1.000000 0.000000
vn 0.000000 0.923831 -0.382801
vn 0.000000 1.000000 0.000000
vn 0.000000 0.923831 -0.382801
vn 0.993611 0.079791 -0.079822
vn 0.993612 0.104252 -0.043199
vn 1.000000 0.000000 0.000000
vn 0.993609 0.043182 -0.104292
vn 0.993611 0.079791 -0.079822
vn 1.000000 0.000000 0.000000
vn 0.993608 0.000000 -0.112885
vn 0.993609 0.043182 -0.104292
vn 1.000000 0.000000 0.000000
vn 0.993609 -0.043182 -0.104292
vn 0.993608 0.000000 -0.112885
vn 1.000000 0.000000 0.000000
vn 0.993611 -0.079791 -0.079822
vn 0.993609 -0.043182 -0.104292
vn 1.000000 0.000000 0.000000
vn 0.993612 -0.104252 -0.043199
vn 0.993611 -0.079791 -0.079822
vn 1.000000 0.000000 0.000000
vn 0.993613 -0.112841 0.000000
vn 0.993612 -0.104252 -0.043199
vn 1.000000 0.000000 0.000000
vn 0.993612 -0.104252 0.043199
vn 0.993613 -0.112841 0.000000
vn 1.000000 0.000000 0.000000
vn 0.993611 -0.079791 0.079822
vn 0.993612 -0.104252 0.043199
vn 1.000000 0.000000 0.000000
vn 0.993609 -0.043182 0.104292
vn 0.993611 -0.079791 0.079822
vn 1.000000 0.000000 0.000000
vn 0.993608 0.000000 0.112885
vn 0.993609 -0.043182 0.104292
vn 1.000000 0.000000 0.000000
vn 0.993609 0.043182 0.104292
vn 0.993608 0.000000 0.112885
vn 1.000000 0.000000 0.000000
vn 0.993611 0.079791 0.079822
vn 0.993609 0.043182 0.104292
vn 1.000000 0.000000 0.000000
vn 0.993612 0.104252 0.043199
vn 0.993611 0.079791 0.079822
vn 1.000000 0.000000 0.000000
vn 0.993613 0.112841 0.000000
vn 0.993612 0.104252 0.043199
vn 1.000000 0.000000 0.000000
vn 0.993612 0.104252 -0.043199
vn 0.993613 0.112841 0.000000
vn 1.000000 0.000000 0.000000
vn 0.904093 0.302115 -0.302230
vn 0.904115 0.394741 -0.163570
vn 0.998711 0.035879 -0.035893
vn 0.998712 0.046880 -0.019426
vn 0.904070 0.163500 -0.394874
vn 0.904093 0.302115 -0.302230
vn 0.998711 0.019417 -0.046894
vn 0.998711 0.035879 -0.035893
vn 0.904061 0.000000 -0.427404
vn 0.904070 0.163500 -0.394874
vn 0.998711 0.000000 -0.050758
vn 0.998711 0.019417 -0.046894
vn 0.904070 -0.163499 -0.394874
vn 0.904061 0.000000 -0.427404
vn 0.998711 -0.019417 -0.046895
vn 0.998711 0.000000 -0.050758
vn 0.904093 -0.302114 -0.302230
vn 0.904070 -0.163499 -0.394874
vn 0.998711 -0.035879 -0.035893
vn 0.998711 -0.019417 -0.046895
vn 0.904115 -0.394741 -0.163570
vn 0.904093 -0.302114 -0.302230
vn 0.998712 -0.046880 -0.019426
vn 0.998711 -0.035879 -0.035893
vn 0.904125 -0.427268 0.000000
vn 0.904115 -0.394741 -0.163570
vn 0.998712 -0.050743 0.000000
vn 0.998712 -0.046880 -0.019426
vn 0.904115 -0.394741 0.163569
vn 0.904125 -0.427268 0.000000
vn 0.998712 -0.046880 0.019426
vn 0.998712 -0.050743 0.000000
vn 0.904093 -0.302115 0.302230
vn 0.904115 -0.394741 0.163569
vn 0.998711 -0.035879 0.035893
vn 0.998712 -0.046880 0.019426
vn 0.904070 -0.163499 0.394874
vn 0.904093 -0.302115 0.302230
vn 0.998711 -0.019417 0.046895
vn 0.998711 -0.035879 0.035893
vn 0.904061 0.000000 0.427404
vn 0.904070 -0.163499 0.394874
vn 0.998711 0.000000 0.050758
vn 0.998711 -0.019417 0.046895
vn 0.904070 0.163499 0.394874
vn 0.904061 0.000000 0.427404
vn 0.998711 0.019417 0.046894
vn 0.998711 0.000000 0.050758
vn 0.904093 0.302114 0.302230
vn 0.904070 0.163499 0.394874
vn 0.998711 0.035879 0.035893
vn 0.998711 0.019417 0.046894
vn 0.904115 0.394741 0.163570
vn 0.904093 0.302114 0.302230
vn 0.998712 0.046880 0.019426
vn 0.998711 0.035879 0.035893
vn 0.904125 0.427268 0.000000
vn 0.904115 0.394741 0.163570
vn 0.998712 0.050743 0.000000
vn 0.998712 0.046880 0.019426
vn 0.904115 0.394741 -0.163570
vn 0.904125 0.427268 0.000000
vn 0.998712 0.046880 -0.019426
vn 0.998712 0.050743 0.000000
vn 0.998711 0.035879 -0.035893
vn 0.998712 0.046880 -0.019426
vn 0.942948 -0.235378 0.235469
vn 0.942963 -0.307541 0.127437
vn 0.998711 0.019417 -0.046894
vn 0.998711 0.035879 -0.035893
vn 0.942934 -0.127384 0.307651
vn 0.942948 -0.235378 0.235469
vn 0.998711 0.000000 -0.050758
vn 0.998711 0.019417 -0.046894
vn 0.942928 0.000000 0.332997
vn 0.942934 -0.127384 0.307651
vn 0.998711 -0.019417 -0.046895
vn 0.998711 0.000000 -0.050758
vn 0.942934 0.127384 0.307651
vn 0.942928 0.000000 0.332997
vn 0.998711 -0.035879 -0.035893
vn 0.998711 -0.019417 -0.046895
vn 0.942948 0.235378 0.235469
vn 0.942934 0.127384 0.307651
vn 0.998712 -0.046880 -0.019426
vn 0.998711 -0.035879 -0.035893
vn 0.942963 0.307541 0.127437
vn 0.942948 0.235378 0.235469
vn 0.998712 -0.050743 0.000000
vn 0.998712 -0.046880 -0.019426
vn 0.942969 0.332882 0.000000
vn 0.942963 0.307541 0.127437
vn 0.998712 -0.046880 0.019426
vn 0.998712 -0.050743 0.000000
vn 0.942963 0.307541 -0.127436
vn 0.942969 0.332882 0.000000
vn 0.998711 -0.035879 0.035893
vn 0.998712 -0.046880 0.019426
vn 0.942948 0.235378 -0.235469
vn 0.942963 0.307541 -0.127436
vn 0.998711 -0.019417 0.046895
vn 0.998711 -0.035879 0.035893
vn 0.942934 0.127384 -0.307650
vn 0.942948 0.235378 -0.235469
vn 0.998711 0.000000 0.050758
vn 0.998711 -0.019417 0.046895
vn 0.942928 0.000000 -0.332997
vn 0.942934 0.127384 -0.307650
vn 0.998711 0.019417 0.046894
vn 0.998711 0.000000 0.050758
vn 0.942934 -0.127384 -0.307651
vn 0.942928 0.000000 -0.332997
vn 0.998711 0.035879 0.035893
vn 0.998711 0.019417 0.046894
vn 0.942948 -0.235378 -0.235469
vn 0.942934 -0.127384 -0.307651
vn 0.998712 0.046880 0.019426
vn 0.998711 0.035879 0.035893
vn 0.942963 -0.307541 -0.127437
vn 0.942948 -0.235378 -0.235469
vn 0.998712 0.050743 0.000000
vn 0.998712 0.046880 0.019426
vn 0.942969 -0.332882 0.000000
vn 0.942963 -0.307541 -0.127437
vn 0.998712 0.046880 -0.019426
vn 0.998712 0.050743 0.000000
vn 0.942963 -0.307541 0.127437
vn 0.942969 -0.332882 0.000000
s 1
g pCylinder5
usemtl blinn1SG
f 1/1/1 2/2/2 4/4/3
f 2/2/2 3/3/4 4/4/3
s 2
f 2/2/5 5/5/6 3/3/7
f 5/5/6 6/6/8 3/3/7
s 3
f 5/5/9 7/7/10 6/6/11
f 7/7/10 8/8/12 6/6/11
s 4
f 7/7/13 9/9/14 8/8/15
f 9/9/14 10/10/16 8/8/15
s 5
f 9/9/17 11/11/18 10/10/19
f 11/11/18 12/12/20 10/10/19
s 6
f 11/11/21 13/13/22 12/12/23
f 13/13/22 14/14/24 12/12/23
s 7
f 13/13/25 15/15/26 14/14/27
f 15/15/26 16/16/28 14/14/27
s 8
f 15/15/29 17/17/30 16/16/31
f 17/17/30 18/18/32 16/16/31
s 9
f 17/17/33 19/19/34 18/18/35
f 19/19/34 20/20/36 18/18/35
s 10
f 19/19/37 21/21/38 20/20/39
f 21/21/38 22/22/40 20/20/39
s 11
f 21/21/41 23/23/42 22/22/43
f 23/23/42 24/24/44 22/22/43
s 12
f 23/23/45 25/25/46 24/24/47
f 25/25/46 26/26/48 24/24/47
s 13
f 25/25/49 27/27/50 26/26/51
f 27/27/50 28/28/52 26/26/51
s 14
f 27/27/53 29/29/54 28/28/55
f 29/29/54 30/30/56 28/28/55
s 15
f 29/29/57 31/31/58 30/30/59
f 31/31/58 32/32/60 30/30/59
s 16
f 31/31/61 1/33/62 32/32/63
f 1/33/62 4/34/64 32/32/63
s off
f 33/35/65 34/36/66 35/37/67
f 36/38/68 33/35/69 35/37/70
f 37/39/71 36/38/72 35/37/73
f 38/40/74 37/39/75 35/37/76
f 39/41/77 38/40/78 35/37/79
f 40/42/80 39/41/81 35/37/82
f 41/43/83 40/42/84 35/37/85
f 42/44/86 41/43/87 35/37/88
f 43/45/89 42/44/90 35/37/91
f 44/46/92 43/45/93 35/37/94
f 45/47/95 44/46/96 35/37/97
f 46/48/98 45/47/99 35/37/100
f 47/49/101 46/48/102 35/37/103
f 48/50/104 47/49/105 35/37/106
f 49/51/107 48/50/108 35/37/109
f 34/36/110 49/51/111 35/37/112
s 33
f 2/52/113 1/53/114 51/55/115
f 1/53/114 50/54/116 51/55/115
s 34
f 5/56/117 2/52/118 52/57/119
f 2/52/118 51/55/120 52/57/119
s 35
f 7/58/121 5/56/122 53/59/123
f 5/56/122 52/57/124 53/59/123
s 36
f 9/60/125 7/58/126 54/61/127
f 7/58/126 53/59/128 54/61/127
s 37
f 11/62/129 9/60/130 55/63/131
f 9/60/130 54/61/132 55/63/131
s 38
f 13/64/133 11/62/134 56/65/135
f 11/62/134 55/63/136 56/65/135
s 39
f 15/66/137 13/64/138 57/67/139
f 13/64/138 56/65/140 57/67/139
s 40
f 17/68/141 15/66/142 58/69/143
f 15/66/142 57/67/144 58/69/143
s 41
f 19/70/145 17/68/146 59/71/147
f 17/68/146 58/69/148 59/71/147
s 42
f 21/72/149 19/70/150 60/73/151
f 19/70/150 59/71/152 60/73/151
s 43
f 23/74/153 21/72/154 61/75/155
f 21/72/154 60/73/156 61/75/155
s 44
f 25/76/157 23/74/158 62/77/159
f 23/74/158 61/75/160 62/77/159
s 45
f 27/78/161 25/76/162 63/79/163
f 25/76/162 62/77/164 63/79/163
s 46
f 29/80/165 27/78/166 64/81/167
f 27/78/166 63/79/168 64/81/167
s 47
f 31/82/169 29/80/170 65/83/171
f 29/80/170 64/81/172 65/83/171
s 48
f 1/53/173 31/82/174 50/54/175
f 31/82/174 65/83/176 50/54/175
s 49
f 51/55/177 50/54/178 33/85/179
f 50/54/178 34/84/180 33/85/179
s 50
f 52/57/181 51/55/182 36/86/183
f 51/55/182 33/85/184 36/86/183
s 51
f 53/59/185 52/57/186 37/87/187
f 52/57/186 36/86/188 37/87/187
s 52
f 54/61/189 53/59/190 38/88/191
f 53/59/190 37/87/192 38/88/191
s 53
f 55/63/193 54/61/194 39/89/195
f 54/61/194 38/88/196 39/89/195
s 54
f 56/65/197 55/63/198 40/90/199
f 55/63/198 39/89/200 40/90/199
s 55
f 57/67/201 56/65/202 41/91/203
f 56/65/202 40/90/204 41/91/203
s 56
f 58/69/205 57/67/206 42/92/207
f 57/67/206 41/91/208 42/92/207
s 57
f 59/71/209 58/69/210 43/93/211
f 58/69/210 42/92/212 43/93/211
s 58
f 60/73/213 59/71/214 44/94/215
f 59/71/214 43/93/216 44/94/215
s 59
f 61/75/217 60/73/218 45/95/219
f 60/73/218 44/94/220 45/95/219
s 60
f 62/77/221 61/75/222 46/96/223
f 61/75/222 45/95/224 46/96/223
s 61
f 63/79/225 62/77/226 47/97/227
f 62/77/226 46/96/228 47/97/227
s 62
f 64/81/229 63/79/230 48/98/231
f 63/79/230 47/97/232 48/98/231
s 63
f 65/83/233 64/81/234 49/99/235
f 64/81/234 48/98/236 49/99/235
s 64
f 50/54/237 65/83/238 34/84/239
f 65/83/238 49/99/240 34/84/239
